<svg xmlns="http://www.w3.org/2000/svg" viewBox="0 0 324.62 375.35"><defs><style>.cls-1{fill:#2563eb;}</style></defs><g id="Layer_2" data-name="Layer 2"><g id="Layer_1-2" data-name="Layer 1"><path class="cls-1" d="M205.31,367.29c-23.83-14.72-26.4-42.53-26.65-45.79l.15-22.42c0-3.44,0-6.2,0-8.91,0-15.88-.19-30.76-.24-34.4-.15-10.38-.31-26.1-.33-49.17,0-9.77-5.51-16.42-11.27-18.22a11.06,11.06,0,0,0-5.54-.21,32.1,32.1,0,0,1,7-4.92c17.27-9,37,1.5,39.12,2.67,10.48,5.76,15.9,14,19.25,19.25a69.75,69.75,0,0,1,10.75,35.05l.31,9.81V375.28C230.68,375.63,217.81,375,205.31,367.29Z"/><path class="cls-1" d="M119.31,8.06c23.83,14.72,26.4,42.53,26.64,45.79l-.15,22.42c0,3.44,0,6.2,0,8.92,0,15.87.18,30.75.24,34.39.15,10.38.31,26.1.32,49.17,0,9.77,5.52,16.42,11.28,18.23a11.12,11.12,0,0,0,5.53.2,32.25,32.25,0,0,1-7,4.92c-17.28,9-37-1.5-39.13-2.66-10.48-5.77-15.89-14-19.25-19.26a69.69,69.69,0,0,1-10.74-35.05l-.32-9.8V.08C93.93-.28,106.81.34,119.31,8.06Z"/><path class="cls-1" d="M232.33,64.38h6.21a0,0,0,0,1,0,0v47.86a56.19,56.19,0,0,1-56.19,56.19h-6.21a0,0,0,0,1,0,0V120.57A56.19,56.19,0,0,1,232.33,64.38Z" transform="translate(414.68 232.82) rotate(180)"/><path class="cls-1" d="M142.26,206.92h6.21a0,0,0,0,1,0,0v47.86A56.19,56.19,0,0,1,92.29,311H86.08a0,0,0,0,1,0,0V263.11a56.19,56.19,0,0,1,56.19-56.19Z"/><circle class="cls-1" cx="36.54" cy="202.76" r="36.54"/><circle class="cls-1" cx="288.08" cy="172.6" r="36.54"/></g></g></svg>